<svg width="50" height="50" viewBox="0 0 50 50" fill="none" xmlns="http://www.w3.org/2000/svg">
<path id="Vector" d="M25 0C23.25 0 21.875 1.375 21.875 3.125C21.875 4.875 23.25 6.25 25 6.25C26.75 6.25 28.125 4.875 28.125 3.125C28.125 1.375 26.75 0 25 0ZM9.375 6.25C7.625 6.25 6.25 7.625 6.25 9.375C6.25 11.125 7.625 12.5 9.375 12.5C11.125 12.5 12.5 11.125 12.5 9.375C12.5 7.625 11.125 6.25 9.375 6.25ZM40.625 6.25C38.875 6.25 37.5 7.625 37.5 9.375C37.5 11.125 38.875 12.5 40.625 12.5C42.375 12.5 43.75 11.125 43.75 9.375C43.75 7.625 42.375 6.25 40.625 6.25ZM25 12.5C18.125 12.5 12.5 18.125 12.5 25C12.5 31.875 18.125 37.5 25 37.5C31.875 37.5 37.5 31.875 37.5 25C37.5 18.125 31.875 12.5 25 12.5ZM3.125 21.875C1.375 21.875 0 23.25 0 25C0 26.75 1.375 28.125 3.125 28.125C4.875 28.125 6.25 26.75 6.25 25C6.25 23.25 4.875 21.875 3.125 21.875ZM46.875 21.875C45.125 21.875 43.75 23.25 43.75 25C43.75 26.75 45.125 28.125 46.875 28.125C48.625 28.125 50 26.75 50 25C50 23.25 48.625 21.875 46.875 21.875ZM9.375 37.5C7.625 37.5 6.25 38.875 6.25 40.625C6.25 42.375 7.625 43.75 9.375 43.75C11.125 43.75 12.5 42.375 12.5 40.625C12.5 38.875 11.125 37.5 9.375 37.5ZM40.625 37.5C38.875 37.5 37.5 38.875 37.5 40.625C37.5 42.375 38.875 43.75 40.625 43.75C42.375 43.75 43.75 42.375 43.75 40.625C43.75 38.875 42.375 37.5 40.625 37.5ZM25 43.75C23.25 43.75 21.875 45.125 21.875 46.875C21.875 48.625 23.25 50 25 50C26.75 50 28.125 48.625 28.125 46.875C28.125 45.125 26.75 43.75 25 43.75Z" fill="white"/>
</svg>
